<svg width="100" height="100" viewBox="0 0 100 100" fill="none" xmlns="http://www.w3.org/2000/svg">
<rect width="100" height="100" fill="#C5D0E6"/>
<path d="M39.1173 58.0172C38.7896 58.0172 38.5214 57.9252 38.3128 57.741C38.1043 57.5569 38 57.3201 38 57.0307V30.9865C38 30.6971 38.1043 30.4604 38.3128 30.2762C38.5214 30.0921 38.7896 30 39.1173 30H44.838C45.1657 30 45.4339 30.0921 45.6425 30.2762C45.851 30.4604 45.9553 30.6971 45.9553 30.9865V39.7863C46.7598 38.9708 47.743 38.3262 48.905 37.8527C50.0968 37.3529 51.4674 37.103 53.0168 37.103C54.7449 37.103 56.2793 37.445 57.6201 38.1289C58.9907 38.8129 60.0633 39.8258 60.838 41.1674C61.6127 42.4828 62 44.1007 62 46.0211V57.0307C62 57.3201 61.8957 57.5569 61.6872 57.741C61.4786 57.9252 61.2104 58.0172 60.8827 58.0172H55.1173C54.8194 58.0172 54.5512 57.9252 54.3129 57.741C54.1043 57.5569 54 57.3201 54 57.0307V46.2579C54 45.0215 53.6574 44.0744 52.9721 43.4167C52.3166 42.7327 51.3333 42.3907 50.0223 42.3907C48.8007 42.3907 47.8175 42.7327 47.0726 43.4167C46.3277 44.0744 45.9553 45.0215 45.9553 46.2579V57.0307C45.9553 57.3201 45.851 57.5569 45.6425 57.741C45.4339 57.9252 45.1657 58.0172 44.838 58.0172H39.1173Z" fill="white"/>
<path d="M66 63.0205C61.3975 67.4585 57 70.0002 50 70.0002C43.4275 70.0002 38.1798 67.0509 34 63.0205" stroke="white" stroke-width="3" stroke-linecap="round"/>
</svg>
