<svg width="20" height="20" viewBox="-2.5 -2.5 25 25" fill="none" xmlns="http://www.w3.org/2000/svg">
<g id="Group">
<path id="Vector" d="M18.706 8.56785V8.32506C18.706 7.32987 17.8589 6.48045 16.7531 6.23769C16.3767 2.74252 13.4825 -0.000137329 10.0001 -0.000137329C6.51772 -0.000137329 3.62359 2.74244 3.24711 6.23769C2.11774 6.48048 1.29417 7.32987 1.29417 8.32506V8.56785C0.564792 8.71345 0 9.44163 0 10.2912C0 11.165 0.56475 11.8688 1.29417 12.0146V12.2574C1.29417 13.4467 2.47064 14.4176 3.92943 14.4176H4.47056V6.89334C4.51767 3.81079 6.98831 1.31085 10 1.31085C13.0352 1.31085 15.5294 3.85942 15.5294 7.0147V14.4176H16.0706C17.5059 14.4176 18.7058 13.4468 18.7058 12.2574V12.0146C19.4352 11.869 20 11.1408 20 10.2912C20 9.41727 19.4352 8.71348 18.7058 8.56785H18.706Z" fill="white"/>
<g id="Vector_2">
<path d="M14.0444 11C13.621 11 13.2914 11.3398 13.2914 11.7768C13.2914 13.6457 11.809 15.1747 9.99737 15.1747C8.18556 15.1747 6.70332 13.6456 6.70332 11.7768C6.70332 11.34 6.37392 11 5.95029 11C5.52685 11 5.19727 11.3398 5.19727 11.7768C5.19727 14.2525 6.96198 16.3399 9.33842 16.6797V19.3446C9.33842 19.7086 9.62072 20 9.97376 20C10.3266 20 10.6091 19.6844 10.6091 19.3446V16.6553C12.9855 16.3155 14.7739 14.2523 14.7739 11.7524C14.7973 11.3398 14.4679 11 14.0444 11Z" fill="white"/>
</g>
<path id="Vector_3" d="M9.99915 13.6846C8.75209 13.6846 7.74023 12.641 7.74023 11.3544V6.33016C7.74023 5.04376 8.75192 3.99998 9.99915 3.99998C11.2462 3.99998 12.2581 5.04358 12.2581 6.33016V11.3544C12.2581 12.6408 11.2462 13.6844 9.99915 13.6844V13.6846Z" fill="white"/>
</g>
</svg>
